<svg width="87" height="19" viewBox="0 0 87 19" fill="none" xmlns="http://www.w3.org/2000/svg">
<path d="M15.422 15V0.908203H12.5118L8.19539 11.543H8.11726L3.80086 0.908203H0.880936V15H3.15633V5H3.22469L7.29695 14.8828H9.0157L13.088 5H13.1563V15H15.422ZM19.2004 18.8477C21.5637 18.8477 22.7062 17.9785 23.5949 15.4102L27.3352 4.64844H24.7766L22.3352 12.9297H22.2961L19.8547 4.64844H17.1984L20.8801 15.0098C20.8898 15.0391 20.7434 15.5566 20.7434 15.5859C20.4699 16.543 19.9523 16.9238 18.9465 16.9238C18.8 16.9238 18.3703 16.9141 18.2434 16.8848V18.8086C18.3703 18.8379 19.0637 18.8477 19.2004 18.8477ZM41.0062 15V0.908203H38.4964V6.76758H31.6409V0.908203H29.1214V15H31.6409V8.88672H38.4964V15H41.0062ZM47.1577 13.3301C46.103 13.3301 45.3998 12.793 45.3998 11.9434C45.3998 11.123 46.0737 10.5957 47.2455 10.5176L49.6381 10.3711V11.1621C49.6381 12.4121 48.5346 13.3301 47.1577 13.3301ZM46.4252 15.166C47.7534 15.166 49.0522 14.4727 49.6479 13.3496H49.6967V15H52.0405V7.87109C52.0405 5.79102 50.3705 4.43359 47.8022 4.43359C45.1655 4.43359 43.5151 5.82031 43.4077 7.75391H45.6635C45.8198 6.89453 46.5522 6.33789 47.7045 6.33789C48.9057 6.33789 49.6381 6.96289 49.6381 8.04688V8.78906L46.9037 8.94531C44.3842 9.10156 42.9682 10.2051 42.9682 12.041C42.9682 13.9062 44.4233 15.166 46.4252 15.166ZM60.1744 15.166C62.7916 15.166 64.442 13.1348 64.442 9.82422C64.442 6.51367 62.7818 4.47266 60.1744 4.47266C58.7095 4.47266 57.5279 5.21484 56.942 6.42578H56.8834V0.908203H54.4517V15H56.8345V13.2324H56.8834C57.4888 14.4336 58.6509 15.166 60.1744 15.166ZM59.4224 6.47461C60.9752 6.47461 61.9517 7.77344 61.9517 9.82422C61.9517 11.8848 60.9849 13.1738 59.4224 13.1738C57.9185 13.1738 56.8736 11.8555 56.8736 9.82422C56.8736 7.8125 57.9185 6.47461 59.4224 6.47461ZM66.4626 15H68.8942V4.64844H66.4626V15ZM67.6735 3.29102C68.4352 3.29102 69.0309 2.70508 69.0309 1.97266C69.0309 1.23047 68.4352 0.644531 67.6735 0.644531C66.9216 0.644531 66.3259 1.23047 66.3259 1.97266C66.3259 2.70508 66.9216 3.29102 67.6735 3.29102ZM71.9891 2.22656V4.64844H70.5047V6.52344H71.9891V12.2461C71.9891 14.2578 72.868 15.0488 75.1043 15.0488C75.6219 15.0488 76.1004 15.0098 76.3641 14.9512V13.0957C76.2078 13.125 75.8953 13.1445 75.6707 13.1445C74.8113 13.1445 74.4207 12.7539 74.4207 11.9043V6.52344H76.3738V4.64844H74.4207V2.22656H71.9891ZM78.2284 7.61719C78.2284 9.11133 79.1952 10.1074 81.1093 10.5566L82.9941 10.9961C83.9999 11.25 84.3808 11.5723 84.3808 12.1777C84.3808 12.9492 83.6484 13.4277 82.4667 13.4277C81.2363 13.4277 80.5038 12.9004 80.3573 11.9531H77.9648C78.1308 13.916 79.7812 15.2051 82.3788 15.2051C84.996 15.2051 86.8027 13.8867 86.8027 11.9336C86.8027 10.4004 85.9921 9.59961 83.9218 9.11133L82.0761 8.70117C81.0605 8.45703 80.5917 8.06641 80.5917 7.48047C80.5917 6.72852 81.2948 6.2207 82.3691 6.2207C83.5019 6.2207 84.2148 6.76758 84.2929 7.65625H86.5585C86.4999 5.74219 84.8495 4.43359 82.4179 4.43359C79.8984 4.43359 78.2284 5.72266 78.2284 7.61719Z" fill="#A116CC"/>
</svg>
